<svg xmlns="http://www.w3.org/2000/svg" width="40" height="40" viewBox="0 0 40 40"><defs><linearGradient id="a3iha" x1="0" x2="40" y1="0" y2="40" gradientUnits="userSpaceOnUse"><stop offset="0" stop-color="#0069d2"/><stop offset="1" stop-color="#28e1a5"/></linearGradient><clipPath id="a3ihb"><path d="M25 11v3.6h-1.8c-.6 0-.9.7-.9 1.3v2.2H25v3.6h-2.7V29h-3.6v-7.2H16v-3.6h2.7v-3.6c0-2 1.6-3.6 3.6-3.6H25"/></clipPath></defs><g><g><g><path fill="url(#a3iha)" d="M20 40C8.972 40 0 31.028 0 20S8.972 0 20 0s20 8.972 20 20-8.972 20-20 20m0-38C10.074 2 2 10.074 2 20s8.074 18 18 18 18-8.074 18-18S29.926 2 20 2"/></g><g><g><path fill="#2e3134" d="M25 11v3.6h-1.8c-.6 0-.9.7-.9 1.3v2.2H25v3.6h-2.7V29h-3.6v-7.2H16v-3.6h2.7v-3.6c0-2 1.6-3.6 3.6-3.6H25"/></g><g clip-path="url(#a3ihb)"><g><path fill="#fff" d="M8 8h24v24H8z"/></g></g></g></g></g></svg>