<svg xmlns="http://www.w3.org/2000/svg" width="40" height="40" viewBox="0 0 40 40"><defs><linearGradient id="zvnra" x1="0" x2="40" y1="0" y2="40" gradientUnits="userSpaceOnUse"><stop offset="0" stop-color="#0069d2"/><stop offset="1" stop-color="#28e1a5"/></linearGradient><clipPath id="zvnrb"><path d="M21 25.2c-1 0-2-.4-2.6-1.1l-1.2 4-.1.3c-.3.4-.7.6-1.2.6-.8 0-1.4-.6-1.4-1.4v-.2l.1-.2 2.3-6.9s-.2-.8-.2-1.8c0-2.1 1.2-2.8 2.1-2.8.9 0 1.8.3 1.8 1.6 0 1.7-1.1 2.5-1.1 3.7 0 .9.8 1.7 1.7 1.7 2.9 0 4-2.2 4-4.2 0-2.7-2.4-4.9-5.2-4.9-2.9 0-5.2 2.2-5.2 4.9 0 .8.2 1.7.7 2.4.1.2.2.4.2.6 0 .7-.6 1.2-1.2 1.2-.4 0-.8-.2-1.1-.6-1.1-1.1-1.4-2.4-1.4-3.7 0-4.1 3.5-7.4 7.8-7.4s7.8 3.3 7.8 7.4c-.1 3.3-2.1 6.8-6.6 6.8"/></clipPath></defs><g><g><g><path fill="url(#zvnra)" d="M20 40C8.972 40 0 31.028 0 20S8.972 0 20 0s20 8.972 20 20-8.972 20-20 20m0-38C10.074 2 2 10.074 2 20s8.074 18 18 18 18-8.074 18-18S29.926 2 20 2"/></g><g><g><path fill="#2e3134" d="M21 25.2c-1 0-2-.4-2.6-1.1l-1.2 4-.1.3c-.3.4-.7.6-1.2.6-.8 0-1.4-.6-1.4-1.4v-.2l.1-.2 2.3-6.9s-.2-.8-.2-1.8c0-2.1 1.2-2.8 2.1-2.8.9 0 1.8.3 1.8 1.6 0 1.7-1.1 2.5-1.1 3.7 0 .9.8 1.7 1.7 1.7 2.9 0 4-2.2 4-4.2 0-2.7-2.4-4.9-5.2-4.9-2.9 0-5.2 2.2-5.2 4.9 0 .8.2 1.7.7 2.4.1.2.2.4.2.6 0 .7-.6 1.2-1.2 1.2-.4 0-.8-.2-1.1-.6-1.1-1.1-1.4-2.4-1.4-3.7 0-4.1 3.5-7.4 7.8-7.4s7.8 3.3 7.8 7.4c-.1 3.3-2.1 6.8-6.6 6.8"/></g><g clip-path="url(#zvnrb)"><g><path fill="#fff" d="M8 8h24v24H8z"/></g></g></g></g></g></svg>