<svg xmlns="http://www.w3.org/2000/svg" width="40" height="40" viewBox="0 0 40 40"><defs><linearGradient id="uorya" x1="0" x2="40" y1="0" y2="40" gradientUnits="userSpaceOnUse"><stop offset="0" stop-color="#0069d2"/><stop offset="1" stop-color="#28e1a5"/></linearGradient><clipPath id="uoryb"><path d="M26.5 14.8c0-.7-.5-1.2-1.2-1.2s-1.2.5-1.2 1.2.5 1.2 1.2 1.2 1.2-.5 1.2-1.2M20 15c-2.8 0-5.1 2.3-5.1 5.1s2.3 5.1 5.1 5.1 5.1-2.3 5.1-5.1S22.8 15 20 15m0 8.5c-1.8 0-3.3-1.5-3.3-3.3 0-1.8 1.5-3.3 3.3-3.3 1.8 0 3.3 1.5 3.3 3.3 0 1.8-1.5 3.3-3.3 3.3m0-11.6c2.7 0 3 0 4 .1 1 0 1.5.2 1.9.3.5.2.8.4 1.1.8.3.3.6.7.7 1.1.2.4.4.9.4 1.9 0 1.1.1 1.4.1 4 0 2.7 0 3-.1 4 0 1-.2 1.5-.3 1.9-.2.5-.4.8-.7 1.1-.3.3-.7.6-1.1.7-.5.3-1 .4-2 .5-1.1 0-1.4.1-4 .1s-3 0-4-.1c-1 0-1.5-.2-1.9-.3-.5-.2-.8-.4-1.1-.7-.3-.3-.6-.7-.7-1.1-.1-.4-.3-.9-.3-1.9 0-1.1-.1-1.4-.1-4 0-2.7 0-3 .1-4 0-1 .2-1.5.3-1.9.1-.6.3-1 .7-1.3.3-.3.7-.6 1.1-.7.4-.2.9-.4 1.9-.4 1 0 1.3-.1 4-.1m0-1.8c-2.7 0-3.1 0-4.1.1-1.1 0-1.8.2-2.4.5-.7.2-1.3.6-1.8 1.1-.6.6-.9 1.1-1.2 1.8-.2.6-.4 1.4-.4 2.4-.1 1.1-.1 1.4-.1 4.1 0 2.7 0 3.1.1 4.1 0 1.1.2 1.8.5 2.4.3.7.6 1.2 1.2 1.8.6.6 1.1.9 1.8 1.2.6.2 1.4.4 2.4.5h4c2.7 0 3.1 0 4.1-.1 1.1 0 1.8-.2 2.4-.5.7-.3 1.2-.6 1.8-1.2.6-.6.9-1.1 1.2-1.8.2-.6.4-1.4.5-2.4 0-1.1.1-1.4.1-4.1 0-2.7 0-3.1-.1-4.1 0-1.1-.2-1.8-.5-2.4-.3-.7-.6-1.2-1.2-1.8-.6-.6-1.1-.9-1.8-1.2-.6-.2-1.4-.4-2.4-.5-1 .2-1.4.1-4.1.1"/></clipPath></defs><g><g><g><path fill="url(#uorya)" d="M20 40C8.972 40 0 31.028 0 20S8.972 0 20 0s20 8.972 20 20-8.972 20-20 20m0-38C10.074 2 2 10.074 2 20s8.074 18 18 18 18-8.074 18-18S29.926 2 20 2"/></g><g><g><path fill="#2e3134" d="M26.5 14.8c0-.7-.5-1.2-1.2-1.2s-1.2.5-1.2 1.2.5 1.2 1.2 1.2 1.2-.5 1.2-1.2M20 15c-2.8 0-5.1 2.3-5.1 5.1s2.3 5.1 5.1 5.1 5.1-2.3 5.1-5.1S22.8 15 20 15m0 8.5c-1.8 0-3.3-1.5-3.3-3.3 0-1.8 1.5-3.3 3.3-3.3 1.8 0 3.3 1.5 3.3 3.3 0 1.8-1.5 3.3-3.3 3.3m0-11.6c2.7 0 3 0 4 .1 1 0 1.5.2 1.9.3.5.2.8.4 1.1.8.3.3.6.7.7 1.1.2.4.4.9.4 1.9 0 1.1.1 1.4.1 4 0 2.7 0 3-.1 4 0 1-.2 1.5-.3 1.9-.2.5-.4.8-.7 1.1-.3.3-.7.6-1.1.7-.5.3-1 .4-2 .5-1.1 0-1.4.1-4 .1s-3 0-4-.1c-1 0-1.5-.2-1.9-.3-.5-.2-.8-.4-1.1-.7-.3-.3-.6-.7-.7-1.1-.1-.4-.3-.9-.3-1.9 0-1.1-.1-1.4-.1-4 0-2.7 0-3 .1-4 0-1 .2-1.5.3-1.9.1-.6.3-1 .7-1.3.3-.3.7-.6 1.1-.7.4-.2.9-.4 1.9-.4 1 0 1.3-.1 4-.1m0-1.8c-2.7 0-3.1 0-4.1.1-1.1 0-1.8.2-2.4.5-.7.2-1.3.6-1.8 1.1-.6.6-.9 1.1-1.2 1.8-.2.6-.4 1.4-.4 2.4-.1 1.1-.1 1.4-.1 4.1 0 2.7 0 3.1.1 4.1 0 1.1.2 1.8.5 2.4.3.7.6 1.2 1.2 1.8.6.6 1.1.9 1.8 1.2.6.2 1.4.4 2.4.5h4c2.7 0 3.1 0 4.1-.1 1.1 0 1.8-.2 2.4-.5.7-.3 1.2-.6 1.8-1.2.6-.6.9-1.1 1.2-1.8.2-.6.4-1.4.5-2.4 0-1.1.1-1.4.1-4.1 0-2.7 0-3.1-.1-4.1 0-1.1-.2-1.8-.5-2.4-.3-.7-.6-1.2-1.2-1.8-.6-.6-1.1-.9-1.8-1.2-.6-.2-1.4-.4-2.4-.5-1 .2-1.4.1-4.1.1"/></g><g clip-path="url(#uoryb)"><g><path fill="#fff" d="M8 8h24v24H8z"/></g></g></g></g></g></svg>