<svg xmlns="http://www.w3.org/2000/svg" width="40" height="40" viewBox="0 0 40 40"><defs><linearGradient id="ns9ba" x1="0" x2="40" y1="0" y2="40" gradientUnits="userSpaceOnUse"><stop offset="0" stop-color="#0069d2"/><stop offset="1" stop-color="#28e1a5"/></linearGradient><clipPath id="ns9bb"><path d="M30 14.8c-.7.3-1.5.5-2.2.6.8-.5 1.4-1.2 1.7-2.1-.8.4-1.6.7-2.5.9-.7-.8-1.7-1.2-2.9-1.2-2.1 0-3.8 1.7-3.8 3.8 0 .3 0 .6.1.9-3.2-.2-6.1-1.7-8-4-.4.6-.6 1.2-.6 1.9 0 1.3.7 2.5 1.7 3.1-.6 0-1.2-.2-1.8-.4 0 1.8 1.3 3.4 3.1 3.7-.3.1-.7.1-1 .1-.2 0-.5 0-.7-.1.5 1.5 1.9 2.6 3.6 2.6-1.3 1-3 1.6-4.8 1.6-.3 0-.6 0-.9-.1 1.7 1.3 3.8 1.9 6 1.9 7.2 0 11.1-5.8 11.1-10.8v-.5c.7-.5 1.4-1.2 1.9-1.9"/></clipPath></defs><g><g><g><path fill="url(#ns9ba)" d="M20 40C8.972 40 0 31.028 0 20S8.972 0 20 0s20 8.972 20 20-8.972 20-20 20m0-38C10.074 2 2 10.074 2 20s8.074 18 18 18 18-8.074 18-18S29.926 2 20 2"/></g><g><g><path fill="#2e3134" d="M30 14.8c-.7.3-1.5.5-2.2.6.8-.5 1.4-1.2 1.7-2.1-.8.4-1.6.7-2.5.9-.7-.8-1.7-1.2-2.9-1.2-2.1 0-3.8 1.7-3.8 3.8 0 .3 0 .6.1.9-3.2-.2-6.1-1.7-8-4-.4.6-.6 1.2-.6 1.9 0 1.3.7 2.5 1.7 3.1-.6 0-1.2-.2-1.8-.4 0 1.8 1.3 3.4 3.1 3.7-.3.1-.7.1-1 .1-.2 0-.5 0-.7-.1.5 1.5 1.9 2.6 3.6 2.6-1.3 1-3 1.6-4.8 1.6-.3 0-.6 0-.9-.1 1.7 1.3 3.8 1.9 6 1.9 7.2 0 11.1-5.8 11.1-10.8v-.5c.7-.5 1.4-1.2 1.9-1.9"/></g><g clip-path="url(#ns9bb)"><g><path fill="#fff" d="M8 8h24v24H8z"/></g></g></g></g></g></svg>