<svg xmlns="http://www.w3.org/2000/svg" width="40" height="40" viewBox="0 0 40 40"><defs><linearGradient id="n5wma" x1="0" x2="40" y1="0" y2="40" gradientUnits="userSpaceOnUse"><stop offset="0" stop-color="#0069d2"/><stop offset="1" stop-color="#28e1a5"/></linearGradient><clipPath id="n5wmb"><path d="M28 12.4c1.6.5 2 4 2 7.6 0 3.6-.4 7.1-2 7.6-.6.2-4.3.4-8 .4s-7.4-.2-8-.4c-1.6-.5-2-4-2-7.6 0-3.6.4-7.1 2-7.6.6-.2 4.3-.4 8-.4s7.4.2 8 .4M24 20l-6-4.5v9"/></clipPath></defs><g><g><g><path fill="url(#n5wma)" d="M20 40C8.972 40 0 31.028 0 20S8.972 0 20 0s20 8.972 20 20-8.972 20-20 20m0-38C10.074 2 2 10.074 2 20s8.074 18 18 18 18-8.074 18-18S29.926 2 20 2"/></g><g><g><path fill="#2e3134" d="M28 12.4c1.6.5 2 4 2 7.6 0 3.6-.4 7.1-2 7.6-.6.2-4.3.4-8 .4s-7.4-.2-8-.4c-1.6-.5-2-4-2-7.6 0-3.6.4-7.1 2-7.6.6-.2 4.3-.4 8-.4s7.4.2 8 .4M24 20l-6-4.5v9"/></g><g clip-path="url(#n5wmb)"><g><path fill="#fff" d="M8 8h24v24H8z"/></g></g></g></g></g></svg>